<svg xmlns="http://www.w3.org/2000/svg" xmlns:xlink="http://www.w3.org/1999/xlink" viewBox="0,0,256,256" width="30px" height="30px" fill-rule="nonzero"><g fill-opacity="0" fill="#dddddd" fill-rule="nonzero" stroke="none" stroke-width="1" stroke-linecap="butt" stroke-linejoin="miter" stroke-miterlimit="10" stroke-dasharray="" stroke-dashoffset="0" font-family="none" font-weight="none" font-size="none" text-anchor="none" style="mix-blend-mode: normal"><path d="M0,256v-256h256v256z" id="bgRectangle"></path></g><g fill="#ffffff" fill-rule="nonzero" stroke="none" stroke-width="1" stroke-linecap="butt" stroke-linejoin="miter" stroke-miterlimit="10" stroke-dasharray="" stroke-dashoffset="0" font-family="none" font-weight="none" font-size="none" text-anchor="none" style="mix-blend-mode: normal"><g transform="scale(2,2)"><path d="M33.90039,24c-1.6,0 -2.90039,1.4 -2.90039,3v31.19922c0,0.8 -0.8,1.20078 -1.5,0.80078c-2.7,-1.6 -6.00039,-2.30039 -9.40039,-1.90039c-6.9,0.9 -12.3,6.50078 -13,13.30078c-1,9.4 6.7,17.19961 16,16.59961c7.9,-0.6 13.90039,-7.50039 13.90039,-15.40039v-41.09961c3.5,1.2 6,4.50039 6,8.40039c0,1.2 0.70039,2.39883 1.90039,2.79883c2.1,0.9 4.09961,-0.69922 4.09961,-2.69922c0,-8.3 -6.79961,-15.1 -15.09961,-15zM108.68359,36.24414c-0.82812,0.01875 -1.65937,0.10586 -2.48437,0.25586l-29.69922,5.90039c-6.1,1.3 -10.5,6.59883 -10.5,12.79883v33c0,0.8 -0.8,1.20078 -1.5,0.80078c-2.7,-1.6 -6.00039,-2.30039 -9.40039,-1.90039c-6.8,0.9 -12.3,6.40078 -13,13.30078c-1,9.4 6.7,17.19961 16,16.59961c7.9,-0.6 13.90039,-7.40078 13.90039,-15.30078v-32.19922l44,-8.80078v17.5c0,0.8 -0.8,1.20078 -1.5,0.80078c-2.7,-1.6 -6.00039,-2.30039 -9.40039,-1.90039c-6.8,0.9 -12.3,6.40078 -13,13.30078c-1,9.4 6.7,17.19961 16,16.59961c7.9,-0.6 13.90039,-7.40078 13.90039,-15.30078v-42.5c0,-4.5 -2.29922,-8.69961 -6.19922,-11.09961c-2.175,-1.35 -4.63281,-1.91172 -7.11719,-1.85547zM109.16797,42.16797c1.55156,0.0375 3.03242,0.58281 4.23242,1.63281c1.6,1.3 2.59961,3.29844 2.59961,5.39844v5.30078l-44,8.80078v-8.10156c0,-3.3 2.39961,-6.19844 5.59961,-6.89844l30,-6c0.525,-0.1 1.05117,-0.14531 1.56836,-0.13281zM22,63c5,0 9,4 9,9c0,5 -4,9 -9,9c-5,0 -9,-4 -9,-9c0,-5 4,-9 9,-9zM107,83c5,0 9,4 9,9c0,5 -4,9 -9,9c-5,0 -9,-4 -9,-9c0,-5 4,-9 9,-9zM57,93c5,0 9,4 9,9c0,5 -4,9 -9,9c-5,0 -9,-4 -9,-9c0,-5 4,-9 9,-9z"></path></g></g></svg>